<?xml version="1.0" standalone="no"?>
<!DOCTYPE svg PUBLIC "-//W3C//DTD SVG 20010904//EN"
 "http://www.w3.org/TR/2001/REC-SVG-20010904/DTD/svg10.dtd">
<svg version="1.0" xmlns="http://www.w3.org/2000/svg"
 width="680.314961pt" height="355.437992pt" viewBox="0 0 680.314961 355.437992"
 preserveAspectRatio="xMidYMid meet">
<metadata>
Created by potrace 1.15, written by Peter Selinger 2001-2017
</metadata>
<g transform="translate(0.000000,355.437992) scale(0.033219,-0.033219)"
fill="#FF0000" stroke="none">
<path d="M17635 7283 c-5 2 -41 -2 -80 -9 -38 -7 -104 -24 -145 -39 -41 -15
-91 -38 -111 -51 -21 -13 -41 -36 -48 -55 -6 -18 -11 -41 -11 -51 0 -10 7 -33
16 -49 9 -18 32 -38 57 -50 27 -12 65 -19 107 -19 36 0 97 7 135 15 39 8 95
23 126 34 31 10 70 26 87 35 18 9 48 40 67 69 19 28 35 64 35 78 0 15 -8 37
-18 49 -15 19 -33 24 -113 31 -51 5 -98 10 -104 12z"/>
</g>
<g transform="translate(0.000000,355.437992) scale(0.033219,-0.033219)"
fill="#00FF00" stroke="none">
<path d="M16705 2669 c-33 -1 -96 -10 -140 -20 -44 -11 -125 -33 -180 -51 -55
-17 -113 -40 -129 -51 -15 -11 -34 -35 -42 -53 -8 -18 -11 -46 -8 -63 4 -16
15 -39 25 -50 11 -12 31 -24 44 -27 13 -3 59 -1 102 5 43 7 103 16 133 20 31
5 89 23 130 40 41 17 97 47 123 67 26 19 53 47 58 62 7 17 8 40 2 62 -5 22
-17 39 -33 47 -14 7 -52 12 -85 12z"/>
</g>
<g transform="translate(0.000000,355.437992) scale(0.033219,-0.033219)"
fill="#0000FF" stroke="none">
<path d="M19255 5669 c-22 0 -60 -7 -85 -15 -25 -8 -90 -18 -146 -22 -69 -6
-115 -15 -146 -30 -24 -12 -64 -39 -88 -59 -24 -21 -56 -57 -72 -82 -18 -30
-28 -58 -28 -84 0 -29 7 -46 29 -68 l29 -29 164 0 c156 0 169 1 254 30 49 17
113 46 142 66 30 20 66 55 82 81 20 31 30 60 30 86 0 21 -5 47 -11 58 -6 12
-34 31 -62 45 -29 13 -70 24 -92 23z"/>
</g>
<g transform="translate(0.000000,355.437992) scale(0.033219,-0.033219)"
fill="#000000" stroke="none">
<path d="M6107 10189 c-34 -1 -73 -5 -87 -9 -14 -4 -55 -8 -92 -9 -39 -1 -103
-11 -150 -25 -46 -13 -107 -33 -135 -45 -29 -11 -84 -36 -122 -56 -38 -19 -72
-39 -76 -45 -3 -6 -37 -35 -75 -65 -38 -30 -89 -82 -115 -114 -25 -33 -59 -90
-75 -126 -22 -50 -54 -92 -123 -164 -50 -54 -113 -122 -138 -152 -26 -31 -70
-90 -97 -132 -33 -50 -63 -115 -86 -185 -34 -102 -36 -113 -36 -245 0 -106 5
-158 20 -220 12 -45 31 -109 44 -142 13 -33 36 -80 50 -105 14 -25 26 -52 26
-62 0 -9 -22 -43 -49 -75 -41 -48 -79 -76 -233 -167 -100 -60 -228 -136 -283
-169 -55 -33 -125 -75 -155 -93 -30 -18 -79 -47 -108 -64 -29 -18 -119 -79
-200 -137 -81 -58 -165 -121 -188 -142 -23 -20 -88 -72 -145 -116 -57 -44
-133 -107 -170 -140 -36 -33 -99 -87 -139 -120 -41 -33 -118 -100 -171 -150
-54 -49 -161 -148 -239 -220 -78 -71 -218 -202 -310 -290 -93 -88 -213 -203
-267 -256 -54 -52 -147 -151 -208 -218 -60 -67 -131 -146 -156 -174 -25 -29
-79 -97 -121 -152 -41 -55 -114 -156 -163 -225 -48 -69 -107 -156 -130 -195
-23 -38 -55 -95 -70 -125 -15 -30 -35 -66 -45 -80 -10 -14 -85 -158 -167 -320
-82 -162 -169 -344 -192 -405 -24 -60 -54 -131 -67 -156 -13 -26 -45 -107 -73
-180 -27 -74 -63 -181 -81 -239 -17 -58 -51 -166 -75 -240 -23 -74 -55 -187
-69 -250 -15 -63 -36 -149 -46 -190 -11 -41 -28 -120 -39 -175 -11 -55 -24
-134 -30 -175 -6 -41 -15 -113 -21 -161 -5 -47 -10 -128 -10 -180 0 -78 4
-102 23 -139 12 -25 37 -55 56 -67 21 -14 49 -23 73 -23 21 0 55 7 74 15 19 8
53 29 74 48 21 18 81 56 132 85 51 29 131 75 178 103 47 27 144 78 215 113 72
36 185 83 251 105 67 22 162 46 210 55 49 8 148 17 219 20 72 3 175 1 230 -4
55 -5 132 -14 170 -20 39 -6 113 -15 165 -20 52 -5 120 -16 150 -25 30 -8 69
-15 86 -15 17 0 73 -9 125 -20 52 -11 123 -29 159 -39 36 -11 121 -34 189 -51
98 -25 154 -46 272 -106 101 -51 173 -96 226 -140 43 -35 91 -86 108 -113 17
-27 42 -77 56 -112 13 -34 40 -79 59 -100 27 -28 48 -40 92 -49 53 -12 59 -11
105 11 26 13 58 39 70 58 14 21 23 49 23 74 0 22 -14 90 -30 151 -17 61 -40
134 -50 161 -11 28 -35 109 -55 180 -19 72 -51 207 -70 300 -19 94 -43 223
-55 287 -11 64 -20 138 -20 165 0 26 -7 80 -15 118 -9 39 -20 117 -26 175 -6
58 -15 193 -20 300 -5 107 -13 287 -17 400 -4 113 -4 297 -1 410 4 113 12 259
18 325 6 66 16 149 21 185 6 36 15 108 21 160 5 52 14 133 19 180 5 47 14 115
19 151 5 37 17 102 26 145 10 44 29 122 42 174 14 52 29 113 34 135 4 22 22
85 38 140 16 55 37 120 45 145 8 25 24 77 36 116 11 40 27 78 36 84 12 11 20
10 41 -1 15 -8 75 -63 134 -124 60 -60 123 -130 141 -154 18 -25 66 -94 105
-155 40 -61 85 -133 99 -161 14 -27 38 -66 53 -85 14 -19 107 -197 206 -394
122 -244 188 -365 206 -379 15 -10 46 -23 70 -27 34 -6 51 -4 79 10 19 10 62
50 95 88 33 39 80 96 105 128 25 32 90 104 146 159 56 55 170 164 255 242 85
79 188 173 229 211 41 37 98 83 125 102 45 31 57 35 115 35 52 0 74 -5 110
-26 25 -15 77 -36 115 -47 39 -11 92 -27 119 -34 27 -7 54 -21 60 -30 7 -12 6
-36 -3 -82 -7 -35 -10 -78 -6 -95 4 -19 22 -44 48 -65 23 -18 52 -38 64 -45
12 -6 42 -11 68 -11 35 0 52 6 70 24 13 13 30 48 38 77 8 30 24 97 36 149 12
52 37 133 57 180 19 47 48 104 64 127 17 23 37 60 45 83 8 22 14 64 13 93 -1
38 13 93 52 210 29 86 61 168 71 182 14 17 33 26 67 30 26 3 79 10 117 17 39
6 107 28 153 49 64 29 101 56 159 111 42 40 93 99 114 131 21 32 49 93 63 135
20 60 26 97 26 166 0 48 -7 114 -15 145 -8 32 -24 80 -36 107 -12 27 -40 71
-63 97 -22 27 -72 72 -111 100 -45 33 -96 59 -145 75 -60 19 -88 23 -140 18
-36 -3 -90 -10 -120 -15 -30 -6 -91 -29 -135 -52 -44 -22 -105 -49 -136 -59
-32 -9 -83 -37 -115 -63 -33 -25 -78 -65 -101 -89 -23 -23 -58 -70 -77 -102
-20 -33 -50 -95 -66 -138 -17 -42 -30 -93 -30 -111 0 -19 9 -60 20 -92 11 -32
20 -66 20 -76 0 -9 9 -39 20 -64 12 -27 50 -78 90 -120 54 -55 70 -78 70 -101
0 -16 -7 -60 -14 -98 -8 -38 -21 -76 -29 -83 -12 -13 -28 -12 -113 6 -54 12
-116 21 -139 21 -22 0 -74 -7 -115 -15 -41 -9 -104 -30 -140 -48 -45 -22 -97
-63 -172 -135 -66 -63 -124 -109 -152 -121 -33 -15 -53 -33 -79 -73 -19 -29
-117 -135 -218 -236 -101 -100 -195 -190 -209 -199 -14 -9 -60 -50 -103 -90
-43 -40 -83 -73 -87 -73 -5 0 -30 -27 -56 -61 -25 -33 -64 -74 -86 -89 -22
-16 -46 -26 -54 -23 -8 3 -57 91 -110 197 -53 105 -124 236 -157 291 -33 54
-94 149 -135 210 -41 60 -102 148 -135 195 -34 48 -144 170 -255 282 -190 193
-194 197 -187 230 4 18 13 44 20 58 7 14 24 54 38 90 14 36 39 101 56 145 16
44 47 123 69 175 21 52 57 132 80 177 23 45 65 109 94 143 29 34 78 90 109
124 30 33 63 73 72 88 9 15 50 45 90 68 39 22 84 40 98 40 16 0 43 -15 70 -38
24 -21 68 -55 96 -74 30 -21 99 -51 160 -71 60 -20 140 -41 178 -47 39 -7 89
-16 112 -21 23 -5 135 -9 248 -9 113 0 225 4 248 9 23 5 74 14 112 21 39 6 93
19 120 27 28 9 90 31 139 50 50 19 122 51 160 70 39 20 91 49 116 66 25 17 63
45 84 61 21 17 66 56 99 86 33 30 76 78 97 105 20 28 58 85 84 128 26 42 54
96 62 120 8 23 30 103 48 177 19 74 40 165 46 201 11 56 11 77 -4 149 -9 46
-37 134 -62 194 -25 61 -63 159 -85 218 -21 59 -50 131 -65 160 -15 29 -51 90
-82 136 -46 69 -71 95 -158 160 -57 42 -142 100 -190 129 -47 28 -131 68 -186
87 -55 20 -112 36 -126 36 -15 0 -64 9 -110 20 -46 11 -111 20 -145 19z m40
-249 c21 0 73 -7 115 -15 42 -8 105 -24 139 -35 34 -12 89 -35 121 -51 33 -16
89 -49 126 -73 37 -23 90 -67 117 -98 28 -30 60 -74 72 -99 12 -24 30 -66 42
-94 11 -27 41 -108 66 -178 25 -71 52 -154 60 -185 8 -31 15 -81 15 -112 0
-30 -7 -89 -14 -130 -8 -41 -22 -93 -30 -115 -8 -22 -30 -77 -50 -123 -19 -46
-50 -107 -68 -135 -18 -28 -58 -79 -88 -113 -30 -34 -86 -87 -125 -116 -38
-30 -96 -71 -128 -91 -31 -21 -101 -59 -155 -86 -70 -35 -122 -54 -183 -64
-46 -9 -114 -20 -150 -26 -37 -6 -124 -11 -194 -11 -70 0 -157 5 -194 11 -36
5 -90 15 -119 20 -29 6 -88 28 -131 50 -62 31 -95 57 -167 131 -49 51 -115
131 -146 178 -39 57 -67 115 -88 179 -18 53 -36 133 -41 185 -8 84 -7 101 16
191 13 54 38 128 55 163 17 36 63 108 102 161 39 53 137 163 217 244 83 85
193 184 256 231 61 46 129 95 152 111 36 23 49 26 95 22 29 -2 81 -15 114 -28
51 -19 68 -21 100 -14 36 9 39 13 42 50 1 22 5 46 7 53 2 7 21 12 42 12z
m1508 -2266 c28 -3 61 -13 75 -23 14 -10 35 -33 48 -51 12 -19 32 -65 44 -103
11 -38 21 -92 22 -120 1 -41 -7 -68 -35 -127 -20 -42 -51 -90 -70 -107 -19
-17 -61 -54 -94 -82 -33 -28 -76 -56 -95 -61 -19 -6 -65 -13 -103 -17 -65 -6
-69 -5 -106 25 -21 17 -65 42 -97 55 -54 21 -62 28 -88 80 -22 43 -29 72 -30
115 0 46 6 71 34 127 32 65 38 71 80 84 25 8 58 18 73 24 16 5 40 25 54 44 15
19 49 46 77 60 28 14 64 34 79 45 15 11 40 24 55 29 15 4 50 6 77 3z m-3388
-64 c7 0 16 -6 19 -14 3 -8 -10 -50 -29 -93 -19 -43 -46 -108 -61 -145 -14
-36 -26 -69 -26 -73 0 -4 -18 -53 -41 -111 -31 -79 -45 -104 -59 -104 -10 0
-44 14 -76 31 -41 21 -67 29 -86 25 -15 -3 -46 -17 -68 -31 -22 -14 -45 -37
-50 -51 -6 -14 -10 -35 -10 -47 0 -12 8 -38 18 -57 10 -20 50 -60 97 -95 55
-42 81 -69 84 -86 2 -13 -2 -55 -9 -94 -6 -38 -24 -108 -40 -155 -16 -47 -45
-123 -65 -169 -21 -46 -43 -109 -50 -140 -7 -31 -23 -96 -35 -146 -13 -49 -34
-128 -48 -175 -14 -47 -29 -107 -33 -135 -5 -27 -13 -86 -19 -130 -5 -44 -14
-111 -20 -150 -5 -38 -15 -99 -20 -135 -6 -36 -16 -99 -21 -140 -6 -41 -14
-124 -19 -185 -4 -60 -14 -189 -21 -285 -8 -96 -13 -276 -13 -400 0 -124 6
-286 13 -360 7 -74 16 -207 21 -295 5 -88 14 -209 19 -270 6 -60 15 -166 20
-235 5 -69 14 -154 20 -190 5 -36 14 -99 20 -140 6 -41 20 -117 31 -168 10
-50 17 -99 14 -107 -4 -8 -17 -15 -29 -15 -13 0 -77 27 -142 59 -69 35 -168
74 -238 94 -66 20 -148 43 -182 51 -34 9 -113 25 -175 36 -62 11 -147 29 -188
40 -41 11 -113 25 -160 31 -47 6 -119 14 -160 20 -41 5 -124 15 -185 21 -60 6
-164 12 -230 11 -66 0 -169 -5 -230 -11 -60 -7 -135 -16 -165 -21 -30 -5 -84
-16 -120 -25 -36 -10 -94 -26 -130 -38 -36 -11 -102 -36 -147 -54 -46 -18
-127 -56 -180 -85 -54 -28 -154 -81 -222 -116 -68 -36 -136 -69 -152 -73 -20
-6 -31 -4 -40 6 -8 10 -8 31 4 86 8 40 20 107 27 148 7 41 19 109 27 150 8 41
21 104 29 140 9 36 29 117 46 180 16 63 48 171 70 240 21 69 63 197 93 285 29
88 71 205 93 260 21 55 50 125 63 155 13 30 103 212 199 405 96 192 204 402
241 465 37 63 80 135 95 160 16 25 58 87 94 138 36 51 99 138 140 193 41 56
89 118 105 139 17 21 66 78 110 126 44 49 166 174 272 279 105 104 248 242
317 305 70 63 178 162 240 220 63 58 148 134 191 170 42 36 115 99 160 140 46
41 113 101 149 133 36 33 83 72 103 87 21 16 57 44 80 62 23 18 120 92 215
163 95 72 191 142 213 157 22 14 82 51 134 82 52 31 100 56 108 56z M6246
8849 c-22 0 -51 -4 -64 -9 -13 -6 -29 -25 -37 -43 -9 -22 -11 -45 -6 -68 4
-19 15 -48 24 -65 9 -18 40 -49 69 -69 29 -21 82 -64 118 -95 36 -31 82 -69
103 -85 22 -17 51 -38 65 -47 15 -10 43 -18 64 -18 28 0 42 7 61 30 14 16 35
55 46 85 12 31 21 68 21 83 0 15 -8 41 -19 58 -11 19 -46 44 -92 69 -41 21
-108 62 -150 92 -42 29 -96 60 -119 68 -23 8 -61 15 -84 14z M17780 7392 c-30
3 -125 1 -210 -3 -85 -4 -177 -12 -204 -18 -27 -6 -73 -22 -102 -35 -29 -13
-84 -43 -123 -65 -54 -32 -77 -52 -98 -89 -15 -26 -37 -60 -50 -75 -12 -15
-26 -42 -31 -60 -5 -19 -5 -96 0 -187 5 -85 13 -207 17 -270 5 -63 14 -169 21
-236 l13 -120 -74 -134 c-48 -87 -83 -139 -100 -149 -24 -13 -34 -12 -122 17
-52 18 -142 39 -198 47 -57 8 -134 19 -172 25 -37 5 -82 10 -100 10 -17 0 -46
-9 -64 -20 -17 -10 -37 -29 -44 -41 -6 -13 -18 -48 -25 -78 -7 -31 -13 -84
-14 -118 0 -35 -5 -95 -12 -134 -12 -69 -12 -71 17 -126 16 -31 42 -64 59 -74
17 -11 49 -19 71 -19 22 0 51 7 64 16 13 9 29 32 37 50 8 18 14 49 14 68 0 19
7 68 15 108 9 43 24 81 36 93 16 16 32 20 87 19 51 0 86 -8 150 -33 54 -21 95
-45 118 -69 21 -22 34 -44 32 -56 -2 -15 -29 -34 -89 -66 -47 -25 -107 -59
-131 -77 -25 -18 -57 -46 -72 -63 -17 -21 -26 -43 -26 -66 0 -19 11 -57 25
-85 15 -28 40 -58 58 -69 18 -11 48 -20 67 -20 24 0 51 12 85 36 28 19 82 56
120 81 39 25 90 55 114 66 24 10 70 34 102 53 33 20 66 48 74 64 8 16 15 47
15 69 0 33 -7 49 -35 80 -19 21 -35 47 -35 57 0 11 15 51 34 89 19 39 58 106
88 150 l53 80 195 7 c107 4 220 11 250 16 30 5 84 21 120 35 36 14 85 34 110
45 25 12 83 28 130 37 66 13 90 22 109 43 22 25 23 30 16 123 -6 91 -5 98 14
108 11 6 42 11 69 11 31 0 88 13 151 35 55 19 109 35 119 35 10 0 26 -8 35
-17 8 -10 31 -54 50 -98 20 -44 48 -123 62 -176 19 -67 37 -109 58 -134 17
-21 45 -44 63 -51 19 -8 54 -14 80 -14 25 0 61 7 80 16 19 9 34 20 34 25 0 4
16 24 35 44 20 19 80 64 134 99 83 54 101 70 111 101 10 31 9 44 -5 82 -11 28
-29 52 -49 64 -20 12 -49 19 -81 19 -31 0 -72 -10 -110 -27 -33 -14 -76 -28
-97 -30 -36 -5 -36 -4 -66 59 -17 34 -45 109 -62 166 -18 57 -43 116 -57 132
-15 18 -44 35 -73 44 -36 11 -65 12 -117 6 -37 -5 -106 -22 -153 -38 -47 -16
-101 -37 -119 -46 -18 -10 -47 -16 -64 -14 -22 2 -36 11 -45 28 -10 19 -12 67
-8 216 l5 191 -28 44 c-16 24 -41 56 -57 71 -16 14 -52 40 -80 56 -28 16 -75
37 -105 45 -30 8 -79 17 -109 19z m-170 -143 c8 0 55 -4 104 -9 54 -5 95 -15
104 -24 9 -9 12 -24 8 -39 -3 -13 -23 -43 -43 -66 -29 -32 -55 -48 -110 -66
-39 -14 -108 -32 -154 -41 -53 -10 -101 -13 -133 -8 -35 4 -58 14 -78 34 -15
16 -28 39 -28 52 0 13 7 34 16 46 8 12 36 33 62 46 26 13 70 31 98 40 28 9 70
20 95 25 24 5 51 9 59 10z m221 -360 c3 1 14 -5 25 -13 17 -13 19 -30 22 -207
2 -126 -1 -201 -8 -219 -6 -15 -21 -32 -33 -38 -12 -6 -58 -27 -102 -47 -44
-20 -97 -43 -117 -50 -21 -8 -81 -21 -133 -30 -55 -10 -113 -14 -135 -10 -21
4 -46 15 -55 25 -9 10 -20 49 -25 91 -6 41 -14 151 -20 244 -8 145 -7 172 5
185 9 8 33 14 58 14 23 -1 76 -4 117 -8 65 -6 97 -2 235 27 88 19 163 35 166
36z M19080 5809 c-30 0 -85 -9 -122 -19 -36 -11 -91 -30 -122 -44 -30 -14 -77
-39 -103 -57 -26 -17 -65 -48 -85 -67 -35 -34 -38 -40 -38 -94 0 -56 -1 -58
-40 -83 -22 -14 -42 -35 -44 -48 -3 -12 -8 -65 -11 -117 -3 -52 -8 -140 -11
-194 -4 -59 -1 -136 6 -190 7 -50 17 -101 24 -112 6 -12 30 -37 52 -55 23 -19
50 -39 60 -45 18 -11 16 -15 -23 -51 -24 -22 -43 -48 -44 -59 0 -10 0 -49 1
-86 1 -66 1 -67 -27 -74 -15 -3 -35 -8 -44 -10 -9 -3 -54 -48 -100 -100 -46
-53 -113 -128 -149 -166 -36 -39 -78 -77 -93 -84 -15 -8 -36 -12 -47 -9 -10 3
-47 29 -81 56 -35 28 -73 63 -84 79 -11 16 -37 38 -57 50 -21 12 -64 23 -100
26 -55 5 -67 3 -90 -15 -15 -12 -46 -61 -68 -108 -22 -48 -59 -112 -82 -142
-23 -31 -75 -90 -115 -132 -62 -65 -73 -82 -73 -111 0 -20 10 -50 23 -68 12
-18 34 -42 48 -52 14 -11 44 -22 67 -25 22 -3 52 -3 67 1 14 4 44 23 67 44 23
20 55 55 72 78 17 23 57 75 89 118 43 57 63 76 81 76 14 0 49 -20 82 -47 32
-27 78 -66 103 -89 25 -23 56 -46 68 -53 12 -6 38 -11 57 -11 19 0 47 5 61 12
14 6 47 41 73 77 25 36 124 144 218 239 94 95 177 186 184 202 8 19 20 30 33
30 11 0 70 -14 130 -31 103 -30 118 -31 216 -26 l105 6 71 -72 c39 -40 99 -96
133 -125 34 -30 62 -62 62 -72 0 -10 -15 -47 -34 -83 -19 -35 -58 -98 -86
-138 -29 -41 -73 -105 -98 -143 -26 -37 -55 -84 -66 -103 -16 -30 -17 -41 -7
-72 6 -21 21 -53 34 -72 12 -19 36 -40 52 -48 15 -7 60 -18 99 -23 39 -5 100
-13 136 -18 36 -5 94 -13 130 -16 55 -5 74 -3 117 16 28 12 59 30 68 40 9 9
18 33 21 52 4 23 0 46 -10 67 -11 20 -33 39 -59 51 -23 10 -70 24 -104 31 -35
6 -71 17 -80 24 -15 11 -16 17 -4 41 7 16 29 54 49 84 19 30 49 75 65 100 17
25 55 71 85 102 55 56 55 57 49 107 -3 27 -13 63 -21 79 -9 18 -45 48 -86 74
-39 23 -98 63 -132 88 -36 26 -75 65 -91 92 -19 30 -27 53 -22 66 3 12 30 34
60 51 30 17 59 40 65 52 6 11 16 86 21 167 5 81 14 210 19 287 6 77 8 172 5
210 -4 39 -13 93 -21 121 -7 28 -21 64 -29 80 -8 16 -15 55 -15 87 0 43 -7 75
-29 120 -16 37 -45 76 -68 97 -23 19 -60 50 -83 69 -23 19 -60 42 -81 53 -22
10 -74 28 -117 38 -42 11 -102 19 -132 19z m175 -180 c33 1 61 -6 83 -19 18
-11 37 -31 42 -46 8 -19 5 -34 -9 -63 -11 -21 -37 -53 -58 -71 -20 -18 -65
-46 -98 -61 -34 -15 -90 -35 -125 -44 -48 -12 -96 -16 -193 -13 -128 3 -129 3
-154 32 -19 23 -24 36 -19 60 4 20 25 49 60 82 30 29 80 64 110 79 43 21 78
29 158 35 57 5 114 13 128 19 14 5 48 10 75 10z m83 -470 c15 1 26 -7 32 -25
6 -14 10 -119 10 -233 0 -126 -4 -221 -11 -240 -6 -17 -21 -36 -33 -42 -11 -6
-61 -36 -110 -67 -84 -52 -93 -56 -166 -60 -53 -3 -94 1 -134 12 -46 14 -62
24 -87 59 -17 23 -51 55 -76 70 l-45 28 28 31 29 30 0 173 c0 129 3 177 13
187 9 9 66 14 205 18 178 5 197 8 257 32 36 15 75 27 88 27z M15345 5127 c-59
2 -99 -3 -153 -18 -50 -15 -84 -32 -108 -54 -28 -27 -34 -40 -34 -74 0 -23 6
-57 14 -76 8 -19 28 -41 46 -50 21 -11 47 -15 74 -12 22 2 93 18 158 34 73 19
132 41 160 59 30 21 44 38 46 56 2 15 -4 41 -13 58 -11 21 -33 39 -63 53 -32
14 -73 22 -127 24z M14417 4989 c-34 0 -75 -5 -92 -11 -16 -6 -66 -33 -110
-59 -45 -27 -100 -66 -123 -87 -37 -34 -42 -44 -42 -83 0 -26 8 -57 20 -77 11
-18 34 -41 52 -52 19 -11 51 -20 73 -20 22 0 52 8 66 18 14 9 47 35 74 57 26
22 81 71 121 109 42 39 78 82 84 101 7 22 7 41 0 59 -5 14 -21 31 -35 36 -15
6 -54 10 -88 9z M15915 4937 c-37 2 -70 -1 -85 -9 -14 -8 -31 -26 -38 -42 -12
-24 -12 -34 3 -73 10 -25 35 -63 55 -83 22 -22 63 -47 96 -60 33 -12 92 -27
131 -33 70 -10 74 -9 113 17 22 14 42 37 46 50 3 14 1 40 -5 59 -7 19 -30 49
-52 67 -22 18 -77 48 -122 68 -56 24 -101 37 -142 39z M12894 4430 c-45 0 -71
-6 -110 -28 -27 -15 -59 -34 -70 -42 -10 -8 -40 -41 -66 -73 -26 -32 -50 -74
-54 -93 -4 -23 -1 -41 9 -57 8 -12 33 -41 54 -64 36 -39 45 -43 86 -43 25 0
58 5 74 11 15 6 69 49 118 97 50 48 95 96 102 107 7 11 12 37 13 57 0 20 -5
48 -11 61 -6 14 -28 34 -49 46 -27 15 -55 21 -96 21z M11438 3959 c-7 -1 -44
-5 -83 -9 -38 -4 -90 -15 -115 -24 -24 -9 -63 -28 -86 -41 -24 -14 -52 -37
-63 -51 -13 -16 -21 -41 -21 -64 0 -22 9 -51 23 -71 12 -18 40 -44 62 -57 29
-17 51 -22 81 -19 22 2 94 28 159 58 90 41 123 61 137 84 10 17 18 47 18 68 0
21 -7 51 -15 66 -8 16 -30 36 -49 45 -19 9 -40 15 -48 15z M11994 3525 c-138
3 -184 1 -203 -9 -13 -7 -30 -24 -37 -37 -7 -13 -13 -38 -14 -55 0 -17 10 -46
23 -65 13 -21 45 -45 82 -64 53 -27 70 -30 150 -30 59 0 110 6 149 18 32 10
69 29 82 42 18 18 24 35 24 67 0 25 -8 56 -20 75 -10 17 -28 36 -38 42 -11 6
-100 13 -198 16z M13321 3508 c-68 4 -71 4 -100 -26 -25 -24 -31 -39 -31 -72
0 -37 6 -48 57 -101 34 -35 78 -69 111 -85 41 -19 78 -28 139 -32 63 -4 93 -1
126 12 24 9 54 27 66 40 12 13 24 39 27 58 5 27 1 40 -21 66 -15 18 -39 39
-54 46 -14 7 -49 16 -77 19 -29 3 -78 20 -112 38 -46 24 -78 33 -131 37z
M9873 3270 c-38 0 -78 -9 -115 -24 -32 -13 -107 -60 -167 -106 -61 -45 -124
-97 -141 -116 -18 -21 -30 -46 -30 -62 0 -15 9 -41 20 -59 10 -18 32 -38 47
-46 15 -8 40 -17 55 -21 17 -4 47 1 80 14 29 11 79 40 110 63 32 23 92 67 135
99 43 31 88 67 100 80 12 12 27 36 33 52 8 21 8 38 -1 63 -6 20 -22 39 -39 48
-16 8 -55 15 -87 15z M14629 3270 c-72 0 -91 -3 -112 -20 -15 -12 -29 -36 -32
-54 -4 -20 -1 -47 8 -68 9 -20 38 -54 67 -77 29 -23 62 -44 75 -47 12 -3 85
-4 161 -2 121 3 146 6 192 27 34 15 58 34 67 52 8 15 15 46 15 68 0 27 -7 48
-24 68 -17 20 -41 33 -74 41 -33 7 -70 8 -113 2 -39 -6 -80 -5 -104 0 -22 5
-79 10 -126 10z M10535 2944 c-11 2 -33 1 -50 -4 -16 -4 -52 -8 -78 -9 -26 0
-61 -8 -76 -16 -16 -8 -36 -30 -45 -49 -9 -19 -16 -43 -16 -54 0 -10 10 -34
23 -52 12 -19 38 -43 57 -54 30 -18 52 -21 155 -21 66 0 164 5 219 12 77 9
104 17 122 34 18 16 24 33 24 62 0 28 -8 51 -26 74 -14 19 -36 38 -48 43 -13
4 -72 13 -132 19 -60 6 -118 13 -129 15z M16562 2829 c-42 -1 -102 -7 -132
-14 -30 -6 -80 -20 -110 -30 -30 -10 -86 -33 -124 -53 -39 -19 -87 -48 -108
-64 -20 -17 -57 -56 -81 -87 -24 -31 -52 -72 -63 -91 -14 -27 -20 -68 -26
-175 -4 -77 -12 -178 -17 -225 -5 -47 -13 -111 -17 -143 -4 -37 -2 -77 6 -111
11 -48 11 -56 -9 -94 -11 -23 -21 -53 -21 -67 0 -14 9 -42 19 -63 10 -20 29
-46 41 -57 12 -11 29 -33 37 -49 10 -19 13 -40 8 -65 -4 -20 -24 -81 -46 -136
-22 -55 -49 -118 -62 -139 -12 -22 -30 -44 -39 -50 -12 -7 -33 -7 -70 1 -29 6
-115 34 -190 62 -76 28 -155 55 -176 59 -25 6 -55 5 -86 -3 -31 -8 -61 -25
-82 -47 -23 -22 -40 -53 -50 -89 -8 -30 -20 -85 -25 -124 -5 -38 -12 -91 -16
-118 -4 -33 0 -61 12 -93 11 -29 28 -53 49 -65 19 -11 49 -19 78 -19 39 0 50
4 68 27 12 16 34 55 50 88 15 33 42 79 59 102 17 24 38 43 47 43 8 0 69 -18
135 -40 77 -25 137 -52 168 -75 27 -19 68 -42 91 -50 23 -8 58 -15 77 -15 19
0 47 7 62 15 16 8 36 31 46 52 10 20 21 72 26 114 4 43 17 99 29 126 12 26 32
75 45 109 12 33 33 80 45 103 l22 43 51 -6 c29 -3 82 -9 118 -12 55 -5 83 -2
158 20 50 14 113 37 139 50 26 13 71 31 100 41 30 9 84 38 120 63 l67 47 97 0
c85 0 100 3 125 23 15 12 37 29 48 36 11 8 42 21 68 28 34 9 53 9 65 2 10 -6
24 -41 34 -80 10 -38 20 -98 23 -134 4 -36 13 -84 21 -107 10 -27 34 -59 65
-87 37 -33 61 -47 94 -51 28 -5 67 -1 107 9 36 9 90 16 121 16 32 0 72 6 90
14 18 7 42 25 55 38 12 14 25 41 28 60 4 23 0 46 -10 67 -10 17 -31 41 -49 51
-18 11 -45 20 -60 20 -15 0 -59 7 -98 16 -51 12 -74 22 -85 39 -9 13 -22 59
-30 102 -8 43 -18 133 -23 200 -6 88 -13 129 -25 148 -10 15 -38 36 -64 47
-37 17 -57 19 -106 14 -43 -4 -76 -15 -111 -37 -27 -17 -81 -43 -120 -59 -38
-15 -86 -30 -107 -34 -26 -5 -40 -2 -52 9 -10 11 -16 34 -16 63 0 26 9 97 20
157 12 61 30 151 41 200 10 50 19 114 19 143 0 29 -5 63 -11 75 -6 12 -22 33
-34 47 -13 14 -28 43 -34 65 -6 22 -19 54 -30 71 -11 19 -40 41 -75 57 -31 15
-84 33 -119 41 -34 8 -95 19 -135 25 -40 6 -107 10 -150 10z m163 -195 c22 -2
46 -12 53 -21 6 -9 12 -24 12 -34 0 -9 -16 -31 -35 -48 -20 -17 -62 -44 -93
-60 -31 -15 -73 -33 -92 -39 -19 -7 -73 -18 -120 -27 -47 -8 -104 -15 -127
-15 -30 0 -49 6 -63 20 -11 11 -20 29 -20 41 0 12 15 36 33 53 24 24 57 40
132 63 55 17 141 40 190 52 51 11 107 18 130 15z m83 -354 c7 0 15 -6 18 -13
3 -8 0 -49 -6 -93 -6 -43 -13 -108 -17 -144 -3 -37 0 -91 7 -125 7 -33 15 -76
17 -96 4 -33 1 -38 -49 -76 -32 -25 -102 -61 -179 -92 -70 -28 -146 -55 -170
-60 -25 -6 -60 -6 -80 -2 -20 5 -74 34 -122 65 -47 32 -93 69 -103 83 -16 25
-15 29 4 87 11 34 25 88 31 121 5 33 15 96 21 140 6 44 13 95 16 113 3 18 12
36 20 39 8 3 42 -6 75 -21 49 -21 76 -26 144 -26 58 0 108 7 166 24 46 14 109
36 139 50 30 14 61 26 68 26z M14813 2769 c-10 -1 -38 -6 -61 -13 -24 -6 -53
-22 -63 -35 -10 -13 -19 -37 -19 -55 0 -17 10 -47 23 -67 12 -20 53 -62 92
-92 38 -31 104 -76 146 -101 42 -25 99 -51 127 -58 40 -9 61 -9 92 1 31 9 45
20 57 45 11 25 14 46 8 82 -5 39 -15 55 -48 85 -22 21 -64 50 -91 65 -28 15
-79 47 -112 71 -34 23 -78 50 -97 58 -20 8 -44 15 -54 14z M8605 2605 c-38 4
-61 1 -95 -15 -25 -12 -53 -31 -62 -43 -10 -12 -18 -40 -18 -62 0 -22 9 -54
19 -71 10 -17 32 -35 47 -41 16 -6 63 -16 104 -23 41 -6 94 -16 117 -21 23 -5
79 -9 125 -9 46 0 100 5 120 10 20 6 47 19 60 29 18 16 23 29 23 69 0 39 -5
56 -23 75 -14 15 -44 28 -80 36 -31 7 -86 19 -122 28 -36 8 -87 19 -115 24
-27 5 -72 11 -100 14z M7713 2566 c-38 2 -85 -5 -138 -20 -44 -13 -99 -33
-121 -44 -23 -12 -44 -28 -48 -37 -3 -9 -6 -29 -6 -44 0 -15 6 -34 13 -43 6
-9 28 -26 47 -37 19 -12 51 -21 71 -21 21 0 75 14 122 31 47 17 100 44 119 59
29 24 33 34 33 74 0 29 -6 51 -17 62 -12 12 -37 19 -75 20z"/>
</g>
</svg>
